<mxfile host="Electron" agent="Mozilla/5.0 (Windows NT 10.0; Win64; x64) AppleWebKit/537.36 (KHTML, like Gecko) draw.io/26.0.4 Chrome/128.0.6613.186 Electron/32.2.5 Safari/537.36" version="26.0.4">
  <diagram name="Seite-1" id="T3exFmkslGlXLoky_9d0">
    <mxGraphModel dx="988" dy="1739" grid="1" gridSize="10" guides="1" tooltips="1" connect="1" arrows="1" fold="1" page="1" pageScale="1" pageWidth="827" pageHeight="1169" math="0" shadow="0">
      <root>
        <mxCell id="0" />
        <mxCell id="1" parent="0" />
        <mxCell id="Jrub73M1boH6iCVljor3-2" value="" style="rounded=0;whiteSpace=wrap;html=1;" parent="1" vertex="1">
          <mxGeometry x="700" y="550" width="290" height="180" as="geometry" />
        </mxCell>
        <mxCell id="9mucqyjG1MLsN1hGMRo8-10" value="1" style="rounded=0;whiteSpace=wrap;html=1;" parent="1" vertex="1">
          <mxGeometry x="700" y="-120" width="340" height="370" as="geometry" />
        </mxCell>
        <mxCell id="Zy9R0tyqMnLvUTVmETqE-21" value="" style="rounded=0;whiteSpace=wrap;html=1;" parent="1" vertex="1">
          <mxGeometry x="120" y="-120" width="580" height="380" as="geometry" />
        </mxCell>
        <mxCell id="Zy9R0tyqMnLvUTVmETqE-19" value="" style="rounded=0;whiteSpace=wrap;html=1;" parent="1" vertex="1">
          <mxGeometry x="990" y="250" width="290" height="300" as="geometry" />
        </mxCell>
        <mxCell id="Zy9R0tyqMnLvUTVmETqE-17" value="" style="rounded=0;whiteSpace=wrap;html=1;" parent="1" vertex="1">
          <mxGeometry x="620" y="250" width="370" height="300" as="geometry" />
        </mxCell>
        <mxCell id="Zy9R0tyqMnLvUTVmETqE-15" value="" style="rounded=0;whiteSpace=wrap;html=1;" parent="1" vertex="1">
          <mxGeometry x="1040" y="-120" width="410" height="370" as="geometry" />
        </mxCell>
        <mxCell id="Zy9R0tyqMnLvUTVmETqE-13" value="" style="rounded=0;whiteSpace=wrap;html=1;" parent="1" vertex="1">
          <mxGeometry x="120" y="250" width="500" height="300" as="geometry" />
        </mxCell>
        <mxCell id="BTu_VsfQ4gi2s-nHiBql-12" style="edgeStyle=orthogonalEdgeStyle;rounded=0;orthogonalLoop=1;jettySize=auto;html=1;exitX=0;exitY=0.75;exitDx=0;exitDy=0;entryX=1;entryY=0.5;entryDx=0;entryDy=0;endArrow=diamondThin;endFill=0;" parent="1" source="MyK4JAG3Z2enxXrZZzXB-1" target="9mucqyjG1MLsN1hGMRo8-1" edge="1">
          <mxGeometry relative="1" as="geometry" />
        </mxCell>
        <mxCell id="BTu_VsfQ4gi2s-nHiBql-13" value="0..*" style="edgeLabel;html=1;align=center;verticalAlign=middle;resizable=0;points=[];" parent="BTu_VsfQ4gi2s-nHiBql-12" connectable="0" vertex="1">
          <mxGeometry x="0.8105" y="1" relative="1" as="geometry">
            <mxPoint y="-11" as="offset" />
          </mxGeometry>
        </mxCell>
        <mxCell id="BTu_VsfQ4gi2s-nHiBql-14" value="1..*" style="edgeLabel;html=1;align=center;verticalAlign=middle;resizable=0;points=[];" parent="BTu_VsfQ4gi2s-nHiBql-12" connectable="0" vertex="1">
          <mxGeometry x="-0.8105" y="3" relative="1" as="geometry">
            <mxPoint as="offset" />
          </mxGeometry>
        </mxCell>
        <mxCell id="MyK4JAG3Z2enxXrZZzXB-1" value="&lt;p style=&quot;margin:0px;margin-top:4px;text-align:center;&quot;&gt;&lt;b&gt;Article&lt;/b&gt;&lt;/p&gt;&lt;hr size=&quot;1&quot; style=&quot;border-style:solid;&quot;&gt;&lt;div style=&quot;height:2px;&quot;&gt;- id:Integer&lt;br&gt;- name:String&lt;br&gt;- price:Double&lt;/div&gt;" style="verticalAlign=top;align=left;overflow=fill;html=1;whiteSpace=wrap;" parent="1" vertex="1">
          <mxGeometry x="810" y="60" width="140" height="120" as="geometry" />
        </mxCell>
        <mxCell id="YeX2A3Fo2PrjXTlJfnqf-2" style="edgeStyle=orthogonalEdgeStyle;rounded=0;orthogonalLoop=1;jettySize=auto;html=1;exitX=0;exitY=0.5;exitDx=0;exitDy=0;entryX=0.75;entryY=1;entryDx=0;entryDy=0;startArrow=diamondThin;startFill=0;endArrow=none;endFill=0;" parent="1" source="MyK4JAG3Z2enxXrZZzXB-2" target="Zy9R0tyqMnLvUTVmETqE-3" edge="1">
          <mxGeometry relative="1" as="geometry">
            <Array as="points">
              <mxPoint x="640" y="380" />
              <mxPoint x="640" y="240" />
              <mxPoint x="333" y="240" />
            </Array>
          </mxGeometry>
        </mxCell>
        <mxCell id="B16ulV1SaaJuf2EosIdV-3" value="1" style="edgeLabel;html=1;align=center;verticalAlign=middle;resizable=0;points=[];" vertex="1" connectable="0" parent="YeX2A3Fo2PrjXTlJfnqf-2">
          <mxGeometry x="0.92" y="1" relative="1" as="geometry">
            <mxPoint x="9" y="-6" as="offset" />
          </mxGeometry>
        </mxCell>
        <mxCell id="B16ulV1SaaJuf2EosIdV-4" value="0..*" style="edgeLabel;html=1;align=center;verticalAlign=middle;resizable=0;points=[];" vertex="1" connectable="0" parent="YeX2A3Fo2PrjXTlJfnqf-2">
          <mxGeometry x="-0.9074" y="1" relative="1" as="geometry">
            <mxPoint x="10" y="-11" as="offset" />
          </mxGeometry>
        </mxCell>
        <mxCell id="MyK4JAG3Z2enxXrZZzXB-2" value="&lt;p style=&quot;margin:0px;margin-top:4px;text-align:center;&quot;&gt;&lt;b&gt;Order&lt;/b&gt;&lt;/p&gt;&lt;hr size=&quot;1&quot; style=&quot;border-style:solid;&quot;&gt;&lt;div style=&quot;height:2px;&quot;&gt;- id:Integer&lt;br&gt;- articles:Map &amp;lt;Article,int&amp;gt;&lt;br&gt;- date&lt;br&gt;- status: Enum&lt;/div&gt;&lt;div style=&quot;height:2px;&quot;&gt;&lt;br&gt;&lt;/div&gt;&lt;div style=&quot;height:2px;&quot;&gt;&lt;br&gt;&lt;/div&gt;&lt;div style=&quot;height:2px;&quot;&gt;&lt;br&gt;&lt;/div&gt;&lt;div style=&quot;height:2px;&quot;&gt;&lt;br&gt;&lt;/div&gt;&lt;div style=&quot;height:2px;&quot;&gt;&lt;br&gt;&lt;/div&gt;&lt;div style=&quot;height:2px;&quot;&gt;&lt;br&gt;&lt;/div&gt;&lt;div style=&quot;height:2px;&quot;&gt;&lt;br&gt;&lt;/div&gt;&lt;div style=&quot;height:2px;&quot;&gt;&lt;br&gt;&lt;/div&gt;&lt;div style=&quot;height:2px;&quot;&gt;&lt;br&gt;&lt;/div&gt;&lt;div style=&quot;height:2px;&quot;&gt;&lt;br&gt;&lt;/div&gt;&lt;div style=&quot;height:2px;&quot;&gt;&lt;br&gt;&lt;/div&gt;&lt;div style=&quot;height:2px;&quot;&gt;&lt;br&gt;&lt;/div&gt;&lt;div style=&quot;height:2px;&quot;&gt;&lt;br&gt;&lt;/div&gt;&lt;div style=&quot;height:2px;&quot;&gt;&lt;br&gt;&lt;/div&gt;&lt;div style=&quot;height:2px;&quot;&gt;&lt;br&gt;&lt;/div&gt;&lt;div style=&quot;height:2px;&quot;&gt;&lt;br&gt;&lt;/div&gt;&lt;div style=&quot;height:2px;&quot;&gt;&lt;br&gt;&lt;/div&gt;&lt;div style=&quot;height:2px;&quot;&gt;&lt;br&gt;&lt;/div&gt;&lt;div style=&quot;height:2px;&quot;&gt;&lt;br&gt;&lt;/div&gt;&lt;div style=&quot;height:2px;&quot;&gt;&lt;br&gt;&lt;/div&gt;&lt;div style=&quot;height:2px;&quot;&gt;&lt;br&gt;&lt;/div&gt;&lt;div style=&quot;height:2px;&quot;&gt;&lt;br&gt;&lt;/div&gt;&lt;div style=&quot;height:2px;&quot;&gt;&lt;br&gt;&lt;/div&gt;&lt;div style=&quot;height:2px;&quot;&gt;&lt;br&gt;&lt;/div&gt;&lt;div style=&quot;height:2px;&quot;&gt;&lt;br&gt;&lt;/div&gt;&lt;div style=&quot;height:2px;&quot;&gt;&lt;br&gt;&lt;/div&gt;&lt;div style=&quot;height:2px;&quot;&gt;- store: Store&lt;/div&gt;&lt;div style=&quot;height:2px;&quot;&gt;&lt;br&gt;&lt;/div&gt;&lt;div style=&quot;height:2px;&quot;&gt;&lt;br&gt;&lt;/div&gt;&lt;div style=&quot;height:2px;&quot;&gt;&lt;br&gt;&lt;/div&gt;&lt;div style=&quot;height:2px;&quot;&gt;&lt;br&gt;&lt;/div&gt;&lt;div style=&quot;height:2px;&quot;&gt;&lt;br&gt;&lt;/div&gt;&lt;div style=&quot;height:2px;&quot;&gt;- salesPerson: Employee&lt;/div&gt;&lt;div style=&quot;height:2px;&quot;&gt;&lt;br&gt;&lt;/div&gt;&lt;div style=&quot;height:2px;&quot;&gt;&lt;br&gt;&lt;/div&gt;&lt;div style=&quot;height:2px;&quot;&gt;&lt;br&gt;&lt;/div&gt;&lt;div style=&quot;height:2px;&quot;&gt;&lt;br&gt;&lt;/div&gt;&lt;div style=&quot;height:2px;&quot;&gt;&lt;br&gt;&lt;/div&gt;&lt;div style=&quot;height:2px;&quot;&gt;- customer: Customer&lt;/div&gt;&lt;div style=&quot;height:2px;&quot;&gt;&lt;br&gt;&lt;/div&gt;" style="verticalAlign=top;align=left;overflow=fill;html=1;whiteSpace=wrap;" parent="1" vertex="1">
          <mxGeometry x="790" y="300" width="180" height="160" as="geometry" />
        </mxCell>
        <mxCell id="Zy9R0tyqMnLvUTVmETqE-1" value="&lt;p style=&quot;margin:0px;margin-top:4px;text-align:center;&quot;&gt;&lt;b&gt;Payment Reminder&lt;/b&gt;&lt;/p&gt;&lt;hr size=&quot;1&quot; style=&quot;border-style:solid;&quot;&gt;&lt;div style=&quot;height:2px;&quot;&gt;&lt;/div&gt;" style="verticalAlign=top;align=left;overflow=fill;html=1;whiteSpace=wrap;" parent="1" vertex="1">
          <mxGeometry x="1020" y="480" width="140" height="60" as="geometry" />
        </mxCell>
        <mxCell id="BTu_VsfQ4gi2s-nHiBql-17" style="edgeStyle=orthogonalEdgeStyle;rounded=0;orthogonalLoop=1;jettySize=auto;html=1;exitX=0;exitY=0.5;exitDx=0;exitDy=0;entryX=1;entryY=0.75;entryDx=0;entryDy=0;startArrow=diamondThin;startFill=0;endArrow=none;endFill=0;" parent="1" source="9mucqyjG1MLsN1hGMRo8-1" target="Zy9R0tyqMnLvUTVmETqE-3" edge="1">
          <mxGeometry relative="1" as="geometry" />
        </mxCell>
        <mxCell id="YeX2A3Fo2PrjXTlJfnqf-1" value="1" style="edgeLabel;html=1;align=center;verticalAlign=middle;resizable=0;points=[];" parent="BTu_VsfQ4gi2s-nHiBql-17" vertex="1" connectable="0">
          <mxGeometry x="0.8967" relative="1" as="geometry">
            <mxPoint x="4" y="11" as="offset" />
          </mxGeometry>
        </mxCell>
        <mxCell id="9mucqyjG1MLsN1hGMRo8-1" value="&lt;p style=&quot;margin:0px;margin-top:4px;text-align:center;&quot;&gt;&lt;b&gt;Delivery (Wareneingang)&lt;/b&gt;&lt;/p&gt;&lt;p style=&quot;margin:0px;margin-top:4px;text-align:center;&quot;&gt;&lt;b&gt;&lt;/b&gt;&lt;/p&gt;&lt;hr style=&quot;border-style: solid;&quot; size=&quot;1&quot;&gt;" style="verticalAlign=top;align=left;overflow=fill;html=1;whiteSpace=wrap;" parent="1" vertex="1">
          <mxGeometry x="530" y="170" width="140" height="60" as="geometry" />
        </mxCell>
        <mxCell id="ZTUaAKTbda-NyMg0LYNs-8" value="&lt;p style=&quot;margin:0px;margin-top:4px;text-align:center;&quot;&gt;&lt;b&gt;Warehouse (Lager)&lt;/b&gt;&lt;/p&gt;&lt;hr size=&quot;1&quot; style=&quot;border-style:solid;&quot;&gt;&amp;nbsp;- store:Store&lt;div style=&quot;height:2px;&quot;&gt;&lt;/div&gt;" style="verticalAlign=top;align=left;overflow=fill;html=1;whiteSpace=wrap;" parent="1" vertex="1">
          <mxGeometry x="530" y="-30" width="140" height="60" as="geometry" />
        </mxCell>
        <mxCell id="1OSqfOWBLKjtoWtCqfP8-4" style="edgeStyle=orthogonalEdgeStyle;rounded=0;orthogonalLoop=1;jettySize=auto;html=1;entryX=1;entryY=0.5;entryDx=0;entryDy=0;startArrow=diamondThin;startFill=0;endArrow=none;endFill=0;" parent="1" source="1OSqfOWBLKjtoWtCqfP8-1" target="MyK4JAG3Z2enxXrZZzXB-1" edge="1">
          <mxGeometry relative="1" as="geometry" />
        </mxCell>
        <mxCell id="B16ulV1SaaJuf2EosIdV-7" value="1..*" style="edgeLabel;html=1;align=center;verticalAlign=middle;resizable=0;points=[];" vertex="1" connectable="0" parent="1OSqfOWBLKjtoWtCqfP8-4">
          <mxGeometry x="0.7029" y="1" relative="1" as="geometry">
            <mxPoint y="-11" as="offset" />
          </mxGeometry>
        </mxCell>
        <mxCell id="B16ulV1SaaJuf2EosIdV-8" value="0..*" style="edgeLabel;html=1;align=center;verticalAlign=middle;resizable=0;points=[];" vertex="1" connectable="0" parent="1OSqfOWBLKjtoWtCqfP8-4">
          <mxGeometry x="-0.7931" relative="1" as="geometry">
            <mxPoint y="-10" as="offset" />
          </mxGeometry>
        </mxCell>
        <mxCell id="9mucqyjG1MLsN1hGMRo8-13" style="edgeStyle=orthogonalEdgeStyle;rounded=0;orthogonalLoop=1;jettySize=auto;html=1;entryX=0;entryY=0.5;entryDx=0;entryDy=0;endArrow=diamondThin;endFill=0;" parent="1" source="1OSqfOWBLKjtoWtCqfP8-1" target="FwY32NNQiGKsPG9vVs9D-18" edge="1">
          <mxGeometry relative="1" as="geometry" />
        </mxCell>
        <mxCell id="B16ulV1SaaJuf2EosIdV-17" value="0..*" style="edgeLabel;html=1;align=center;verticalAlign=middle;resizable=0;points=[];" vertex="1" connectable="0" parent="9mucqyjG1MLsN1hGMRo8-13">
          <mxGeometry x="0.6686" y="-2" relative="1" as="geometry">
            <mxPoint x="-48" y="-12" as="offset" />
          </mxGeometry>
        </mxCell>
        <mxCell id="B16ulV1SaaJuf2EosIdV-18" value="1" style="edgeLabel;html=1;align=center;verticalAlign=middle;resizable=0;points=[];" vertex="1" connectable="0" parent="9mucqyjG1MLsN1hGMRo8-13">
          <mxGeometry x="0.6571" y="2" relative="1" as="geometry">
            <mxPoint y="-8" as="offset" />
          </mxGeometry>
        </mxCell>
        <mxCell id="1OSqfOWBLKjtoWtCqfP8-1" value="&lt;p style=&quot;margin:0px;margin-top:4px;text-align:center;&quot;&gt;&lt;b&gt;Restock Order&lt;/b&gt;&lt;/p&gt;&lt;hr size=&quot;1&quot; style=&quot;border-style:solid;&quot;&gt;&lt;div style=&quot;height:2px;&quot;&gt;&lt;/div&gt;" style="verticalAlign=top;align=left;overflow=fill;html=1;whiteSpace=wrap;" parent="1" vertex="1">
          <mxGeometry x="1080" y="90" width="140" height="60" as="geometry" />
        </mxCell>
        <mxCell id="ZTUaAKTbda-NyMg0LYNs-9" value="&lt;p style=&quot;margin:0px;margin-top:4px;text-align:center;&quot;&gt;&lt;b&gt;Invoice&lt;/b&gt;&lt;/p&gt;&lt;hr size=&quot;1&quot; style=&quot;border-style:solid;&quot;&gt;&lt;div style=&quot;height:2px;&quot;&gt;&lt;/div&gt;" style="verticalAlign=top;align=left;overflow=fill;html=1;whiteSpace=wrap;" parent="1" vertex="1">
          <mxGeometry x="1020" y="350" width="140" height="60" as="geometry" />
        </mxCell>
        <mxCell id="1OSqfOWBLKjtoWtCqfP8-2" value="&lt;p style=&quot;margin:0px;margin-top:4px;text-align:center;&quot;&gt;&lt;b&gt;Product Range (Sortiment)&lt;/b&gt;&lt;/p&gt;&lt;hr style=&quot;border-style: solid;&quot; size=&quot;1&quot;&gt;&amp;nbsp;" style="verticalAlign=top;align=left;overflow=fill;html=1;whiteSpace=wrap;" parent="1" vertex="1">
          <mxGeometry x="530" y="90" width="140" height="60" as="geometry" />
        </mxCell>
        <mxCell id="FwY32NNQiGKsPG9vVs9D-14" value="&lt;p style=&quot;margin:0px;margin-top:4px;text-align:center;&quot;&gt;&lt;b&gt;User Role&lt;/b&gt;&lt;/p&gt;&lt;hr size=&quot;1&quot; style=&quot;border-style:solid;&quot;&gt;&lt;div style=&quot;height:2px;&quot;&gt;&lt;/div&gt;" style="verticalAlign=top;align=left;overflow=fill;html=1;whiteSpace=wrap;" parent="1" vertex="1">
          <mxGeometry x="204" y="380" width="140" height="60" as="geometry" />
        </mxCell>
        <mxCell id="FwY32NNQiGKsPG9vVs9D-31" style="edgeStyle=orthogonalEdgeStyle;rounded=0;orthogonalLoop=1;jettySize=auto;html=1;startArrow=diamondThin;startFill=1;endArrow=none;endFill=0;endSize=6;startSize=6;exitX=1;exitY=0.25;exitDx=0;exitDy=0;" parent="1" source="Zy9R0tyqMnLvUTVmETqE-3" edge="1">
          <mxGeometry relative="1" as="geometry">
            <mxPoint x="344.14" y="119.5100000000002" as="sourcePoint" />
            <Array as="points" />
            <mxPoint x="530" y="119" as="targetPoint" />
          </mxGeometry>
        </mxCell>
        <mxCell id="FwY32NNQiGKsPG9vVs9D-32" value="1" style="edgeLabel;html=1;align=center;verticalAlign=middle;resizable=0;points=[];" parent="FwY32NNQiGKsPG9vVs9D-31" vertex="1" connectable="0">
          <mxGeometry x="0.8739" y="2" relative="1" as="geometry">
            <mxPoint x="-1" y="-8" as="offset" />
          </mxGeometry>
        </mxCell>
        <mxCell id="B16ulV1SaaJuf2EosIdV-16" value="1" style="edgeLabel;html=1;align=center;verticalAlign=middle;resizable=0;points=[];" vertex="1" connectable="0" parent="FwY32NNQiGKsPG9vVs9D-31">
          <mxGeometry x="-0.6676" y="1" relative="1" as="geometry">
            <mxPoint as="offset" />
          </mxGeometry>
        </mxCell>
        <mxCell id="Zy9R0tyqMnLvUTVmETqE-3" value="&lt;p style=&quot;margin:0px;margin-top:4px;text-align:center;&quot;&gt;&lt;b&gt;Store&lt;/b&gt;&lt;/p&gt;&lt;hr style=&quot;border-style: solid;&quot; size=&quot;1&quot;&gt;&amp;nbsp;- warehouse:Warehouse&lt;div&gt;- productrange: ProductRange&lt;/div&gt;" style="verticalAlign=top;align=left;overflow=fill;html=1;whiteSpace=wrap;" parent="1" vertex="1">
          <mxGeometry x="157" y="100" width="230" height="76" as="geometry" />
        </mxCell>
        <mxCell id="FwY32NNQiGKsPG9vVs9D-18" value="&lt;p style=&quot;margin:0px;margin-top:4px;text-align:center;&quot;&gt;&lt;b&gt;Central Warehouse&lt;/b&gt;&lt;span style=&quot;color: rgba(0, 0, 0, 0); font-family: monospace; font-size: 0px; text-wrap: nowrap; background-color: initial; text-align: left;&quot;&gt;%3CmxGraphModel%3E%3Croot%3E%3CmxCell%20id%3D%220%22%2F%3E%3CmxCell%20id%3D%221%22%20parent%3D%220%22%2F%3E%3CmxCell%20id%3D%222%22%20value%3D%22%26lt%3Bp%20style%3D%26quot%3Bmargin%3A0px%3Bmargin-top%3A4px%3Btext-align%3Acenter%3B%26quot%3B%26gt%3B%26lt%3Bb%26gt%3BWarehouse%26lt%3B%2Fb%26gt%3B%26lt%3B%2Fp%26gt%3B%26lt%3Bhr%20size%3D%26quot%3B1%26quot%3B%20style%3D%26quot%3Bborder-style%3Asolid%3B%26quot%3B%26gt%3B%26lt%3Bdiv%20style%3D%26quot%3Bheight%3A2px%3B%26quot%3B%26gt%3B%26lt%3B%2Fdiv%26gt%3B%22%20style%3D%22verticalAlign%3Dtop%3Balign%3Dleft%3Boverflow%3Dfill%3Bhtml%3D1%3BwhiteSpace%3Dwrap%3B%22%20vertex%3D%221%22%20parent%3D%221%22%3E%3CmxGeometry%20x%3D%22330%22%20y%3D%22180%22%20width%3D%22140%22%20height%3D%2260%22%20as%3D%22geometry%22%2F%3E%3C%2FmxCell%3E%3C%2Froot%3E%3C%2FmxGraphModel%3E&lt;/span&gt;&lt;/p&gt;&lt;hr style=&quot;border-style: solid;&quot; size=&quot;1&quot;&gt;&lt;p style=&quot;margin:0px;margin-top:4px;text-align:center;&quot;&gt;&lt;span style=&quot;background-color: initial; color: rgba(0, 0, 0, 0); font-family: monospace; font-size: 0px; text-align: left; text-wrap: nowrap;&quot;&gt;%3CmxGraphModel%3E%3Croot%3E%3CmxCell%20id%3D%220%22%2F%3E%3CmxCell%20id%3D%221%22%20parent%3D%220%22%2F%3E%3CmxCell%20id%3D%222%22%20value%3D%22%26lt%3Bp%20style%3D%26quot%3Bmargin%3A0px%3Bmargin-top%3A4px%3Btext-align%3Acenter%3B%26quot%3B%26gt%3B%26lt%3Bb%26gt%3BWarehouse%26lt%3B%2Fb%26gt%3B%26lt%3B%2Fp%26gt%3B%26lt%3Bhr%20size%3D%26quot%3B1%26quot%3B%20style%3D%26quot%3Bborder-style%3Asolid%3B%26quot%3B%26gt%3B%26lt%3Bdiv%20style%3D%26quot%3Bheight%3A2px%3B%26quot%3B%26gt%3B%26lt%3B%2Fdiv%26gt%3B%22%20style%3D%22verticalAlign%3Dtop%3Balign%3Dleft%3Boverflow%3Dfill%3Bhtml%3D1%3BwhiteSpace%3Dwrap%3B%22%20vertex%3D%221%22%20parent%3D%221%22%3E%3CmxGeometry%20x%3D%22330%22%20y%3D%22180%22%20width%3D%22140%22%20height%3D%2260%22%20as%3D%22geometry%22%2F%3E%3C%2FmxCell%3E%3C%2Froot%3E%3C%2FmxGraphModel%3E&lt;/span&gt;&lt;/p&gt;" style="verticalAlign=top;align=left;overflow=fill;html=1;whiteSpace=wrap;" parent="1" vertex="1">
          <mxGeometry x="1290" y="90" width="140" height="60" as="geometry" />
        </mxCell>
        <mxCell id="FwY32NNQiGKsPG9vVs9D-23" value="&lt;p style=&quot;margin:0px;margin-top:4px;text-align:center;&quot;&gt;&lt;b&gt;User&lt;/b&gt;&lt;/p&gt;&lt;hr size=&quot;1&quot; style=&quot;border-style:solid;&quot;&gt;&lt;div style=&quot;height:2px;&quot;&gt;&lt;/div&gt;" style="verticalAlign=top;align=left;overflow=fill;html=1;whiteSpace=wrap;" parent="1" vertex="1">
          <mxGeometry x="204" y="290" width="140" height="60" as="geometry" />
        </mxCell>
        <mxCell id="Zy9R0tyqMnLvUTVmETqE-14" value="Bounded Context: Authentication &amp;amp; User Management" style="text;html=1;align=center;verticalAlign=middle;whiteSpace=wrap;rounded=0;" parent="1" vertex="1">
          <mxGeometry x="120" y="250" width="220" height="30" as="geometry" />
        </mxCell>
        <mxCell id="Zy9R0tyqMnLvUTVmETqE-16" value="Bounded Context: Store Management" style="text;html=1;align=center;verticalAlign=middle;whiteSpace=wrap;rounded=0;" parent="1" vertex="1">
          <mxGeometry x="120" y="-120" width="220" height="30" as="geometry" />
        </mxCell>
        <mxCell id="Zy9R0tyqMnLvUTVmETqE-18" value="Bounded Context: Order" style="text;html=1;align=center;verticalAlign=middle;whiteSpace=wrap;rounded=0;" parent="1" vertex="1">
          <mxGeometry x="710" y="250" width="140" height="30" as="geometry" />
        </mxCell>
        <mxCell id="Zy9R0tyqMnLvUTVmETqE-20" value="Bounded Context: Accounting" style="text;html=1;align=center;verticalAlign=middle;whiteSpace=wrap;rounded=0;" parent="1" vertex="1">
          <mxGeometry x="990" y="250" width="170" height="30" as="geometry" />
        </mxCell>
        <mxCell id="Zy9R0tyqMnLvUTVmETqE-22" value="Bounded Context: Central Warehouse" style="text;html=1;align=center;verticalAlign=middle;whiteSpace=wrap;rounded=0;" parent="1" vertex="1">
          <mxGeometry x="1040" y="-120" width="230" height="30" as="geometry" />
        </mxCell>
        <mxCell id="FwY32NNQiGKsPG9vVs9D-36" value="&lt;p style=&quot;margin:0px;margin-top:4px;text-align:center;&quot;&gt;&lt;b&gt;System Rights&lt;/b&gt;&lt;/p&gt;&lt;hr size=&quot;1&quot; style=&quot;border-style:solid;&quot;&gt;&lt;div style=&quot;height:2px;&quot;&gt;&lt;/div&gt;" style="verticalAlign=top;align=left;overflow=fill;html=1;whiteSpace=wrap;" parent="1" vertex="1">
          <mxGeometry x="204" y="480" width="140" height="60" as="geometry" />
        </mxCell>
        <mxCell id="xAtQWPxYKB0Z_wxzEg49-5" value="1...*" style="edgeLabel;html=1;align=center;verticalAlign=middle;resizable=0;points=[];" parent="1" connectable="0" vertex="1">
          <mxGeometry x="390" y="364.86" as="geometry">
            <mxPoint x="-98" y="-170" as="offset" />
          </mxGeometry>
        </mxCell>
        <mxCell id="xAtQWPxYKB0Z_wxzEg49-8" value="1" style="edgeLabel;html=1;align=center;verticalAlign=middle;resizable=0;points=[];" parent="1" connectable="0" vertex="1">
          <mxGeometry x="299.9999999999999" y="364.8571428571429" as="geometry">
            <mxPoint x="-12" y="-86" as="offset" />
          </mxGeometry>
        </mxCell>
        <mxCell id="ZTUaAKTbda-NyMg0LYNs-5" value="&lt;p style=&quot;margin:0px;margin-top:4px;text-align:center;&quot;&gt;&lt;b&gt;Customer&lt;/b&gt;&lt;/p&gt;&lt;hr size=&quot;1&quot; style=&quot;border-style:solid;&quot;&gt;&lt;div style=&quot;height:2px;&quot;&gt;&amp;nbsp;- id: Integer&lt;/div&gt;" style="verticalAlign=top;align=left;overflow=fill;html=1;whiteSpace=wrap;" parent="1" vertex="1">
          <mxGeometry x="810" y="620" width="140" height="60" as="geometry" />
        </mxCell>
        <mxCell id="9mucqyjG1MLsN1hGMRo8-5" value="1" style="edgeLabel;html=1;align=center;verticalAlign=middle;resizable=0;points=[];" parent="1" connectable="0" vertex="1">
          <mxGeometry x="590" y="565" as="geometry" />
        </mxCell>
        <mxCell id="9mucqyjG1MLsN1hGMRo8-6" value="" style="rounded=0;whiteSpace=wrap;html=1;" parent="1" vertex="1">
          <mxGeometry x="120" y="550" width="580" height="180" as="geometry" />
        </mxCell>
        <mxCell id="hatDBeAybVVVZnMW4rA5-1" value="&lt;p style=&quot;margin:0px;margin-top:4px;text-align:center;&quot;&gt;&lt;b&gt;Article Registry&lt;/b&gt;&lt;/p&gt;&lt;hr size=&quot;1&quot; style=&quot;border-style:solid;&quot;&gt;&lt;div style=&quot;height:2px;&quot;&gt;+ getArticle(id:int)&lt;/div&gt;&lt;div style=&quot;height:2px;&quot;&gt;&lt;br&gt;&lt;br&gt;&lt;br&gt;&lt;/div&gt;" style="verticalAlign=top;align=left;overflow=fill;html=1;whiteSpace=wrap;" parent="1" vertex="1">
          <mxGeometry x="800" y="-90" width="160" height="110" as="geometry" />
        </mxCell>
        <mxCell id="9mucqyjG1MLsN1hGMRo8-7" value="Bounded Context: Logs" style="text;html=1;align=center;verticalAlign=middle;whiteSpace=wrap;rounded=0;" parent="1" vertex="1">
          <mxGeometry x="120" y="550" width="170" height="30" as="geometry" />
        </mxCell>
        <mxCell id="9mucqyjG1MLsN1hGMRo8-8" value="&lt;p style=&quot;margin:0px;margin-top:4px;text-align:center;&quot;&gt;&lt;b&gt;Log&lt;/b&gt;&lt;/p&gt;&lt;hr size=&quot;1&quot; style=&quot;border-style:solid;&quot;&gt;&lt;div style=&quot;height:2px;&quot;&gt;- src-service : String&lt;br&gt;- store:&lt;br&gt;- order:&lt;br&gt;-&amp;nbsp;&lt;/div&gt;&lt;div style=&quot;height:2px;&quot;&gt;&lt;br&gt;&lt;/div&gt;" style="verticalAlign=top;align=left;overflow=fill;html=1;whiteSpace=wrap;" parent="1" vertex="1">
          <mxGeometry x="160" y="605" width="140" height="90" as="geometry" />
        </mxCell>
        <mxCell id="9mucqyjG1MLsN1hGMRo8-11" value="Bounded Context: Article Registry" style="text;html=1;align=center;verticalAlign=middle;whiteSpace=wrap;rounded=0;" parent="1" vertex="1">
          <mxGeometry x="700" y="-120" width="210" height="30" as="geometry" />
        </mxCell>
        <mxCell id="9mucqyjG1MLsN1hGMRo8-20" value="Bounded Context: Customer Management" style="text;html=1;align=center;verticalAlign=middle;whiteSpace=wrap;rounded=0;" parent="1" vertex="1">
          <mxGeometry x="700" y="550" width="170" height="30" as="geometry" />
        </mxCell>
        <mxCell id="-DJWgbXjbj2B8JCoFd62-4" value="0..*" style="edgeLabel;html=1;align=center;verticalAlign=middle;resizable=0;points=[];" parent="1" connectable="0" vertex="1">
          <mxGeometry x="870" y="50" as="geometry">
            <mxPoint x="26" y="-21" as="offset" />
          </mxGeometry>
        </mxCell>
        <mxCell id="-DJWgbXjbj2B8JCoFd62-6" value="0..*" style="edgeLabel;html=1;align=center;verticalAlign=middle;resizable=0;points=[];" parent="1" connectable="0" vertex="1">
          <mxGeometry x="539.9954980608949" y="130.00124549600014" as="geometry">
            <mxPoint x="150" y="-20" as="offset" />
          </mxGeometry>
        </mxCell>
        <mxCell id="-DJWgbXjbj2B8JCoFd62-7" value="1..*" style="edgeLabel;html=1;align=center;verticalAlign=middle;resizable=0;points=[];" parent="1" connectable="0" vertex="1">
          <mxGeometry x="527.4254980608948" y="120.00124549600014" as="geometry">
            <mxPoint x="269" y="-11" as="offset" />
          </mxGeometry>
        </mxCell>
        <mxCell id="-DJWgbXjbj2B8JCoFd62-8" value="1" style="edgeLabel;html=1;align=center;verticalAlign=middle;resizable=0;points=[];" parent="1" connectable="0" vertex="1">
          <mxGeometry x="539.9954980608949" y="130.00124549600014" as="geometry">
            <mxPoint x="349" y="-81" as="offset" />
          </mxGeometry>
        </mxCell>
        <mxCell id="-DJWgbXjbj2B8JCoFd62-15" value="0..*" style="edgeLabel;html=1;align=center;verticalAlign=middle;resizable=0;points=[];" parent="1" connectable="0" vertex="1">
          <mxGeometry x="650" y="230.00428571428577" as="geometry">
            <mxPoint x="-134" y="-16" as="offset" />
          </mxGeometry>
        </mxCell>
        <mxCell id="-DJWgbXjbj2B8JCoFd62-18" value="" style="endArrow=diamondThin;endFill=1;endSize=6;startSize=12;html=1;rounded=0;entryX=0.5;entryY=0;entryDx=0;entryDy=0;exitX=0;exitY=0.5;exitDx=0;exitDy=0;edgeStyle=orthogonalEdgeStyle;" parent="1" source="ZTUaAKTbda-NyMg0LYNs-8" target="Zy9R0tyqMnLvUTVmETqE-3" edge="1">
          <mxGeometry width="160" relative="1" as="geometry">
            <mxPoint x="520" y="210" as="sourcePoint" />
            <mxPoint x="680" y="210" as="targetPoint" />
          </mxGeometry>
        </mxCell>
        <mxCell id="BTu_VsfQ4gi2s-nHiBql-6" value="1" style="edgeLabel;html=1;align=center;verticalAlign=middle;resizable=0;points=[];" parent="-DJWgbXjbj2B8JCoFd62-18" connectable="0" vertex="1">
          <mxGeometry x="-0.9389" relative="1" as="geometry">
            <mxPoint as="offset" />
          </mxGeometry>
        </mxCell>
        <mxCell id="BTu_VsfQ4gi2s-nHiBql-7" value="1" style="edgeLabel;html=1;align=center;verticalAlign=middle;resizable=0;points=[];" parent="-DJWgbXjbj2B8JCoFd62-18" connectable="0" vertex="1">
          <mxGeometry x="0.8944" y="1" relative="1" as="geometry">
            <mxPoint as="offset" />
          </mxGeometry>
        </mxCell>
        <mxCell id="-DJWgbXjbj2B8JCoFd62-20" value="1" style="edgeLabel;html=1;align=center;verticalAlign=middle;resizable=0;points=[];" parent="1" connectable="0" vertex="1">
          <mxGeometry x="527.425498060895" y="120.00124549600037" as="geometry">
            <mxPoint x="-178" y="-10" as="offset" />
          </mxGeometry>
        </mxCell>
        <mxCell id="-DJWgbXjbj2B8JCoFd62-21" value="" style="endArrow=diamondThin;endFill=0;endSize=6;startSize=12;html=1;rounded=0;entryX=1;entryY=0.5;entryDx=0;entryDy=0;exitX=0;exitY=0.5;exitDx=0;exitDy=0;" parent="1" source="MyK4JAG3Z2enxXrZZzXB-1" target="1OSqfOWBLKjtoWtCqfP8-2" edge="1">
          <mxGeometry width="160" relative="1" as="geometry">
            <mxPoint x="740" y="160" as="sourcePoint" />
            <mxPoint x="900" y="160" as="targetPoint" />
          </mxGeometry>
        </mxCell>
        <mxCell id="-DJWgbXjbj2B8JCoFd62-22" value="" style="endArrow=diamondThin;endFill=0;endSize=6;html=1;rounded=0;exitX=0.5;exitY=0;exitDx=0;exitDy=0;entryX=0.5;entryY=1;entryDx=0;entryDy=0;" parent="1" source="MyK4JAG3Z2enxXrZZzXB-1" target="hatDBeAybVVVZnMW4rA5-1" edge="1">
          <mxGeometry width="160" relative="1" as="geometry">
            <mxPoint x="860" y="60" as="sourcePoint" />
            <mxPoint x="890" y="20" as="targetPoint" />
          </mxGeometry>
        </mxCell>
        <mxCell id="-DJWgbXjbj2B8JCoFd62-23" value="" style="endArrow=diamondThin;endFill=0;endSize=6;html=1;rounded=0;entryX=0.5;entryY=1;entryDx=0;entryDy=0;" parent="1" source="FwY32NNQiGKsPG9vVs9D-23" target="Zy9R0tyqMnLvUTVmETqE-3" edge="1">
          <mxGeometry width="160" relative="1" as="geometry">
            <mxPoint x="340" y="210" as="sourcePoint" />
            <mxPoint x="500" y="210" as="targetPoint" />
          </mxGeometry>
        </mxCell>
        <mxCell id="-DJWgbXjbj2B8JCoFd62-26" style="edgeStyle=orthogonalEdgeStyle;rounded=0;orthogonalLoop=1;jettySize=auto;html=1;entryX=0.5;entryY=0;entryDx=0;entryDy=0;startArrow=diamondThin;startFill=0;endArrow=none;endFill=0;exitX=0.5;exitY=1;exitDx=0;exitDy=0;" parent="1" source="FwY32NNQiGKsPG9vVs9D-14" target="FwY32NNQiGKsPG9vVs9D-36" edge="1">
          <mxGeometry relative="1" as="geometry">
            <mxPoint x="530" y="310" as="sourcePoint" />
            <mxPoint x="400" y="310" as="targetPoint" />
          </mxGeometry>
        </mxCell>
        <mxCell id="B16ulV1SaaJuf2EosIdV-12" value="0..*" style="edgeLabel;html=1;align=center;verticalAlign=middle;resizable=0;points=[];" vertex="1" connectable="0" parent="-DJWgbXjbj2B8JCoFd62-26">
          <mxGeometry x="0.6103" y="1" relative="1" as="geometry">
            <mxPoint x="15" as="offset" />
          </mxGeometry>
        </mxCell>
        <mxCell id="B16ulV1SaaJuf2EosIdV-13" value="0..*" style="edgeLabel;html=1;align=center;verticalAlign=middle;resizable=0;points=[];" vertex="1" connectable="0" parent="-DJWgbXjbj2B8JCoFd62-26">
          <mxGeometry x="-0.5621" y="1" relative="1" as="geometry">
            <mxPoint x="15" as="offset" />
          </mxGeometry>
        </mxCell>
        <mxCell id="-DJWgbXjbj2B8JCoFd62-27" style="edgeStyle=orthogonalEdgeStyle;rounded=0;orthogonalLoop=1;jettySize=auto;html=1;entryX=0.5;entryY=0;entryDx=0;entryDy=0;startArrow=diamondThin;startFill=0;endArrow=none;endFill=0;exitX=0.5;exitY=1;exitDx=0;exitDy=0;" parent="1" source="FwY32NNQiGKsPG9vVs9D-23" target="FwY32NNQiGKsPG9vVs9D-14" edge="1">
          <mxGeometry relative="1" as="geometry">
            <mxPoint x="543" y="350" as="sourcePoint" />
            <mxPoint x="417" y="290" as="targetPoint" />
          </mxGeometry>
        </mxCell>
        <mxCell id="B16ulV1SaaJuf2EosIdV-1" value="1" style="edgeLabel;html=1;align=center;verticalAlign=middle;resizable=0;points=[];" vertex="1" connectable="0" parent="-DJWgbXjbj2B8JCoFd62-27">
          <mxGeometry x="0.4286" y="-1" relative="1" as="geometry">
            <mxPoint x="7" as="offset" />
          </mxGeometry>
        </mxCell>
        <mxCell id="B16ulV1SaaJuf2EosIdV-14" value="0..*" style="edgeLabel;html=1;align=center;verticalAlign=middle;resizable=0;points=[];" vertex="1" connectable="0" parent="-DJWgbXjbj2B8JCoFd62-27">
          <mxGeometry x="-0.623" y="-1" relative="1" as="geometry">
            <mxPoint x="17" as="offset" />
          </mxGeometry>
        </mxCell>
        <mxCell id="-DJWgbXjbj2B8JCoFd62-30" value="" style="endArrow=diamondThin;endFill=1;endSize=6;startSize=12;html=1;rounded=0;entryX=1;entryY=0.5;entryDx=0;entryDy=0;exitX=0;exitY=0.5;exitDx=0;exitDy=0;" parent="1" source="ZTUaAKTbda-NyMg0LYNs-9" target="MyK4JAG3Z2enxXrZZzXB-2" edge="1">
          <mxGeometry width="160" relative="1" as="geometry">
            <mxPoint x="766" y="301" as="sourcePoint" />
            <mxPoint x="730" y="290" as="targetPoint" />
            <Array as="points" />
          </mxGeometry>
        </mxCell>
        <mxCell id="B16ulV1SaaJuf2EosIdV-5" value="1" style="edgeLabel;html=1;align=center;verticalAlign=middle;resizable=0;points=[];" vertex="1" connectable="0" parent="-DJWgbXjbj2B8JCoFd62-30">
          <mxGeometry x="0.56" y="-1" relative="1" as="geometry">
            <mxPoint y="-9" as="offset" />
          </mxGeometry>
        </mxCell>
        <mxCell id="B16ulV1SaaJuf2EosIdV-6" value="0..1" style="edgeLabel;html=1;align=center;verticalAlign=middle;resizable=0;points=[];" vertex="1" connectable="0" parent="-DJWgbXjbj2B8JCoFd62-30">
          <mxGeometry x="-0.7333" relative="1" as="geometry">
            <mxPoint x="-3" y="-10" as="offset" />
          </mxGeometry>
        </mxCell>
        <mxCell id="-DJWgbXjbj2B8JCoFd62-31" value="" style="endArrow=diamondThin;endFill=1;endSize=6;startSize=12;html=1;rounded=0;entryX=0.5;entryY=1;entryDx=0;entryDy=0;exitX=0.5;exitY=0;exitDx=0;exitDy=0;" parent="1" source="Zy9R0tyqMnLvUTVmETqE-1" target="ZTUaAKTbda-NyMg0LYNs-9" edge="1">
          <mxGeometry width="160" relative="1" as="geometry">
            <mxPoint x="1030" y="390" as="sourcePoint" />
            <mxPoint x="980" y="390" as="targetPoint" />
            <Array as="points" />
          </mxGeometry>
        </mxCell>
        <mxCell id="-DJWgbXjbj2B8JCoFd62-32" value="0..*" style="edgeLabel;html=1;align=center;verticalAlign=middle;resizable=0;points=[];" parent="-DJWgbXjbj2B8JCoFd62-31" connectable="0" vertex="1">
          <mxGeometry x="-0.5673" relative="1" as="geometry">
            <mxPoint x="10" y="5" as="offset" />
          </mxGeometry>
        </mxCell>
        <mxCell id="-DJWgbXjbj2B8JCoFd62-33" value="1" style="edgeLabel;html=1;align=center;verticalAlign=middle;resizable=0;points=[];" parent="-DJWgbXjbj2B8JCoFd62-31" connectable="0" vertex="1">
          <mxGeometry x="0.698" y="1" relative="1" as="geometry">
            <mxPoint x="11" as="offset" />
          </mxGeometry>
        </mxCell>
        <mxCell id="-DJWgbXjbj2B8JCoFd62-34" value="" style="endArrow=diamondThin;endFill=0;endSize=6;startSize=12;html=1;rounded=0;entryX=0.5;entryY=0;entryDx=0;entryDy=0;exitX=0.5;exitY=1;exitDx=0;exitDy=0;" parent="1" source="MyK4JAG3Z2enxXrZZzXB-1" target="MyK4JAG3Z2enxXrZZzXB-2" edge="1">
          <mxGeometry width="160" relative="1" as="geometry">
            <mxPoint x="860" y="220" as="sourcePoint" />
            <mxPoint x="720" y="220" as="targetPoint" />
          </mxGeometry>
        </mxCell>
        <mxCell id="-DJWgbXjbj2B8JCoFd62-35" value="0..*" style="edgeLabel;html=1;align=center;verticalAlign=middle;resizable=0;points=[];" parent="-DJWgbXjbj2B8JCoFd62-34" connectable="0" vertex="1">
          <mxGeometry x="0.581" y="1" relative="1" as="geometry">
            <mxPoint x="9" y="5" as="offset" />
          </mxGeometry>
        </mxCell>
        <mxCell id="Abx4f4ej1ZXTtj3Ti3pd-1" value="1..*" style="edgeLabel;html=1;align=center;verticalAlign=middle;resizable=0;points=[];" parent="-DJWgbXjbj2B8JCoFd62-34" connectable="0" vertex="1">
          <mxGeometry x="-0.7915" relative="1" as="geometry">
            <mxPoint x="10" as="offset" />
          </mxGeometry>
        </mxCell>
        <mxCell id="-DJWgbXjbj2B8JCoFd62-39" value="" style="endArrow=diamondThin;endFill=0;endSize=6;startSize=12;html=1;rounded=0;entryX=0.5;entryY=1;entryDx=0;entryDy=0;exitX=0.5;exitY=0;exitDx=0;exitDy=0;" parent="1" source="ZTUaAKTbda-NyMg0LYNs-5" target="MyK4JAG3Z2enxXrZZzXB-2" edge="1">
          <mxGeometry width="160" relative="1" as="geometry">
            <mxPoint x="879.57" y="470" as="sourcePoint" />
            <mxPoint x="879.57" y="590" as="targetPoint" />
          </mxGeometry>
        </mxCell>
        <mxCell id="-DJWgbXjbj2B8JCoFd62-40" value="0...*" style="edgeLabel;html=1;align=center;verticalAlign=middle;resizable=0;points=[];" parent="-DJWgbXjbj2B8JCoFd62-39" connectable="0" vertex="1">
          <mxGeometry x="0.581" y="1" relative="1" as="geometry">
            <mxPoint x="21" y="-23" as="offset" />
          </mxGeometry>
        </mxCell>
        <mxCell id="-DJWgbXjbj2B8JCoFd62-41" value="1" style="edgeLabel;html=1;align=center;verticalAlign=middle;resizable=0;points=[];" parent="-DJWgbXjbj2B8JCoFd62-39" connectable="0" vertex="1">
          <mxGeometry x="-0.8714" y="1" relative="1" as="geometry">
            <mxPoint x="11" as="offset" />
          </mxGeometry>
        </mxCell>
      </root>
    </mxGraphModel>
  </diagram>
</mxfile>
